<svg xmlns="http://www.w3.org/2000/svg" version="1.1" xmlns:xlink="http://www.w3.org/1999/xlink" xmlns:svgjs="http://svgjs.dev/svgjs" width="1000" height="1000" viewBox="0 0 1000 1000"><rect width="1000" height="1000" fill="#ffffff"></rect><g transform="matrix(0.7,0,0,0.7,149.57575757575756,455.4158628726462)"><svg viewBox="0 0 396 51" data-background-color="#ffffff" preserveAspectRatio="xMidYMid meet" height="128" width="1000" xmlns="http://www.w3.org/2000/svg" xmlns:xlink="http://www.w3.org/1999/xlink"><defs></defs><g id="tight-bounds" transform="matrix(1,0,0,1,0.2400000000000091,-0.12286837617139668)"><svg viewBox="0 0 395.52 51.24573601031903" height="51.24573601031903" width="395.52"><g><svg viewBox="0 0 458.21751273626785 59.369168924422986" height="51.24573601031903" width="395.52"><g transform="matrix(1,0,0,1,0,8.205145632825463)"><svg viewBox="0 0 395.52 42.95887765877206" height="42.95887765877206" width="395.52"><g><svg viewBox="0 0 395.52 42.95887765877206" height="42.95887765877206" width="395.52"><g><svg viewBox="0 0 395.52 42.95887765877206" height="42.95887765877206" width="395.52"><g transform="matrix(1,0,0,1,0,0)"><svg width="395.52" viewBox="4.699999809265137 -35.5 331.41998291015625 36.001922607421875" height="42.95887765877206" data-palette-color="#4b91f1"><path d="M6.2-35L6.2-35Q6.55-35 6.93-34.85 7.3-34.7 7.55-34.35L7.55-34.35 21.35-13.65 20-13.7 33.85-34.35Q34.4-35.1 35.2-35L35.2-35Q35.8-35 36.23-34.58 36.65-34.15 36.65-33.5L36.65-33.5 36.65-1.5Q36.65-0.9 36.2-0.45 35.75 0 35.1 0L35.1 0Q34.4 0 33.95-0.45 33.5-0.9 33.5-1.5L33.5-1.5 33.5-30.45 34.4-30.35 21.75-11.2Q21.6-10.9 21.3-10.73 21-10.55 20.6-10.6L20.6-10.6Q20.25-10.55 19.93-10.73 19.6-10.9 19.4-11.2L19.4-11.2 6.7-30.55 7.65-31.2 7.65-1.5Q7.65-0.9 7.23-0.45 6.8 0 6.15 0L6.15 0Q5.5 0 5.1-0.45 4.7-0.9 4.7-1.5L4.7-1.5 4.7-33.5Q4.7-34.1 5.13-34.55 5.55-35 6.2-35ZM66.9-35.2L66.9-35.2Q67.55-35.2 67.97-34.73 68.4-34.25 68.4-33.7L68.4-33.7Q68.4-33.45 68.32-33.23 68.25-33 68.1-32.75L68.1-32.75 56.35-16.6 56.95-18.55 56.95-1.5Q56.95-0.9 56.5-0.45 56.05 0 55.4 0L55.4 0Q54.75 0 54.32-0.45 53.9-0.9 53.9-1.5L53.9-1.5 53.9-18.2 54.15-17 42.7-32.65Q42.5-32.9 42.4-33.18 42.3-33.45 42.3-33.7L42.3-33.7Q42.3-34.35 42.82-34.77 43.35-35.2 43.9-35.2L43.9-35.2Q44.65-35.2 45.15-34.5L45.15-34.5 55.9-19.85 55.15-19.95 65.6-34.5Q66.1-35.2 66.9-35.2ZM97.29 0.5L97.29 0.5Q93.49 0.55 90.69-0.7 87.89-1.95 85.34-4.45L85.34-4.45Q85.09-4.65 84.92-4.95 84.74-5.25 84.74-5.65L84.74-5.65Q84.74-6.25 85.22-6.75 85.69-7.25 86.29-7.25L86.29-7.25Q86.89-7.25 87.39-6.75L87.39-6.75Q89.34-4.65 91.82-3.55 94.29-2.45 97.14-2.45L97.14-2.45Q99.54-2.45 101.42-3.2 103.29-3.95 104.39-5.35 105.49-6.75 105.49-8.6L105.49-8.6Q105.49-10.9 104.24-12.33 102.99-13.75 100.94-14.68 98.89-15.6 96.39-16.35L96.39-16.35Q94.34-16.95 92.49-17.73 90.64-18.5 89.19-19.63 87.74-20.75 86.94-22.4 86.14-24.05 86.14-26.4L86.14-26.4Q86.14-29.05 87.54-31.1 88.94-33.15 91.52-34.33 94.09-35.5 97.49-35.5L97.49-35.5Q100.44-35.5 103.17-34.5 105.89-33.5 107.49-31.55L107.49-31.55Q108.24-30.75 108.24-30.1L108.24-30.1Q108.24-29.6 107.74-29.1 107.24-28.6 106.64-28.6L106.64-28.6Q106.14-28.6 105.79-28.95L105.79-28.95Q104.94-30 103.64-30.83 102.34-31.65 100.77-32.1 99.19-32.55 97.49-32.55L97.49-32.55Q95.14-32.55 93.27-31.83 91.39-31.1 90.32-29.75 89.24-28.4 89.24-26.5L89.24-26.5Q89.24-24.4 90.44-23.05 91.64-21.7 93.59-20.83 95.54-19.95 97.74-19.2L97.74-19.2Q99.89-18.6 101.87-17.82 103.84-17.05 105.37-15.9 106.89-14.75 107.77-13 108.64-11.25 108.64-8.6L108.64-8.6Q108.64-6.05 107.19-4 105.74-1.95 103.22-0.75 100.69 0.45 97.29 0.5ZM118.89-33.45L118.89-1.55Q118.84-0.9 118.37-0.45 117.89 0 117.29 0L117.29 0Q116.59 0 116.17-0.45 115.74-0.9 115.74-1.55L115.74-1.55 115.74-33.45Q115.74-34.1 116.19-34.55 116.64-35 117.34-35L117.34-35Q117.94-35 118.42-34.55 118.89-34.1 118.89-33.45L118.89-33.45ZM138.64 0L138.64 0Q137.94 0 137.51-0.45 137.09-0.9 137.09-1.5L137.09-1.5 137.09-33.35 140.19-33.35 140.19-1.5Q140.19-0.9 139.74-0.45 139.29 0 138.64 0ZM150.54-32.15L126.74-32.15Q126.14-32.15 125.69-32.55 125.24-32.95 125.24-33.6L125.24-33.6Q125.24-34.2 125.69-34.6 126.14-35 126.74-35L126.74-35 150.54-35Q151.14-35 151.59-34.6 152.04-34.2 152.04-33.55L152.04-33.55Q152.04-32.9 151.59-32.52 151.14-32.15 150.54-32.15L150.54-32.15ZM159.94-35L159.94-35 178.29-35Q178.89-35 179.34-34.58 179.79-34.15 179.79-33.5L179.79-33.5Q179.79-32.85 179.34-32.45 178.89-32.05 178.29-32.05L178.29-32.05 161.09-32.05 161.59-32.9 161.59-18.85 161.04-19.5 176.04-19.5Q176.64-19.5 177.09-19.05 177.54-18.6 177.54-18L177.54-18Q177.54-17.35 177.09-16.95 176.64-16.55 176.04-16.55L176.04-16.55 161.14-16.55 161.59-17.05 161.59-2.65 161.34-2.95 178.29-2.95Q178.89-2.95 179.34-2.5 179.79-2.05 179.79-1.45L179.79-1.45Q179.79-0.8 179.34-0.4 178.89 0 178.29 0L178.29 0 159.94 0Q159.34 0 158.89-0.45 158.44-0.9 158.44-1.5L158.44-1.5 158.44-33.5Q158.44-34.1 158.89-34.55 159.34-35 159.94-35ZM201.98-35L214.73-35Q218.43-35 221.21-33.6 223.98-32.2 225.78-29.73 227.58-27.25 228.46-24.1 229.33-20.95 229.33-17.5L229.33-17.5Q229.33-12.7 227.76-8.72 226.18-4.75 222.96-2.38 219.73 0 214.73 0L214.73 0 201.98 0Q201.38 0 200.93-0.45 200.48-0.9 200.48-1.5L200.48-1.5 200.48-33.5Q200.48-34.1 200.93-34.55 201.38-35 201.98-35L201.98-35ZM203.33-2.95L214.23-2.95Q218.48-2.95 221.08-4.9 223.68-6.85 224.91-10.18 226.13-13.5 226.13-17.5L226.13-17.5Q226.13-20.4 225.46-23.03 224.78-25.65 223.36-27.68 221.93-29.7 219.66-30.88 217.38-32.05 214.23-32.05L214.23-32.05 203.28-32.05 203.63-32.5 203.63-2.45 203.33-2.95ZM239.58-33.45L239.58-1.55Q239.53-0.9 239.05-0.45 238.58 0 237.98 0L237.98 0Q237.28 0 236.85-0.45 236.43-0.9 236.43-1.55L236.43-1.55 236.43-33.45Q236.43-34.1 236.88-34.55 237.33-35 238.03-35L238.03-35Q238.63-35 239.1-34.55 239.58-34.1 239.58-33.45L239.58-33.45ZM259.73-31.35L260.63-31.15 248.48-0.95Q248.28-0.45 247.93-0.2 247.58 0.05 247.13 0.05L247.13 0.05Q246.43 0.05 246.08-0.33 245.73-0.7 245.68-1.25L245.68-1.25Q245.63-1.5 245.73-1.85L245.73-1.85 258.93-34.15Q259.18-34.7 259.55-34.93 259.93-35.15 260.43-35.15L260.43-35.15Q260.93-35.15 261.3-34.88 261.68-34.6 261.88-34.15L261.88-34.15 275.03-2Q275.13-1.7 275.13-1.4L275.13-1.4Q275.13-0.7 274.68-0.33 274.23 0.05 273.63 0.05L273.63 0.05Q273.13 0.05 272.75-0.23 272.38-0.5 272.18-0.95L272.18-0.95 259.73-31.35ZM268.73-10.1L251.38-10.1 252.63-13.05 268.13-13.05 268.73-10.1ZM282.97 0L282.97 0Q282.22 0 281.75-0.45 281.27-0.9 281.27-1.5L281.27-1.5 281.27-33.5Q281.27-34.1 281.72-34.55 282.17-35 282.77-35L282.77-35 296.27-35Q299.12-35 301.37-33.77 303.62-32.55 304.9-30.4 306.17-28.25 306.17-25.55L306.17-25.55Q306.17-23.35 305.37-21.5 304.57-19.65 303.12-18.38 301.67-17.1 299.87-16.5L299.87-16.5 298.12-17.05Q299.97-16.9 301.57-15.88 303.17-14.85 304.15-13.08 305.12-11.3 305.17-8.8L305.17-8.8Q305.22-6.65 305.4-5.45 305.57-4.25 305.92-3.65 306.27-3.05 306.82-2.7L306.82-2.7Q307.32-2.4 307.5-1.85 307.67-1.3 307.37-0.8L307.37-0.8Q307.17-0.4 306.8-0.23 306.42-0.05 306.02-0.05 305.62-0.05 305.22-0.25L305.22-0.25Q304.52-0.65 303.8-1.5 303.07-2.35 302.6-4 302.12-5.65 302.12-8.6L302.12-8.6Q302.12-10.55 301.5-11.8 300.87-13.05 299.9-13.73 298.92-14.4 297.75-14.68 296.57-14.95 295.52-14.95L295.52-14.95 283.87-14.95 284.42-15.65 284.42-1.5Q284.42-0.9 284.02-0.45 283.62 0 282.97 0ZM284.42-17L283.87-17.7 296.42-17.7Q298.12-17.85 299.62-18.82 301.12-19.8 302.05-21.5 302.97-23.2 302.97-25.45L302.97-25.45Q302.97-28.3 301.05-30.18 299.12-32.05 296.02-32.05L296.02-32.05 284.07-32.05 284.42-32.75 284.42-17ZM334.62-35.2L334.62-35.2Q335.27-35.2 335.7-34.73 336.12-34.25 336.12-33.7L336.12-33.7Q336.12-33.45 336.05-33.23 335.97-33 335.82-32.75L335.82-32.75 324.07-16.6 324.67-18.55 324.67-1.5Q324.67-0.9 324.22-0.45 323.77 0 323.12 0L323.12 0Q322.47 0 322.05-0.45 321.62-0.9 321.62-1.5L321.62-1.5 321.62-18.2 321.87-17 310.42-32.65Q310.22-32.9 310.12-33.18 310.02-33.45 310.02-33.7L310.02-33.7Q310.02-34.35 310.55-34.77 311.07-35.2 311.62-35.2L311.62-35.2Q312.37-35.2 312.87-34.5L312.87-34.5 323.62-19.85 322.87-19.95 333.32-34.5Q333.82-35.2 334.62-35.2Z" opacity="1" transform="matrix(1,0,0,1,0,0)" fill="#000000" class="undefined-text-0" data-fill-palette-color="primary" id="text-0"></path></svg></g></svg></g></svg></g></svg></g><g transform="matrix(1,0,0,1,405.6615600021723,0)"><svg viewBox="0 0 52.55595273409557 59.369168924422986" height="59.369168924422986" width="52.55595273409557"><g><svg xmlns="http://www.w3.org/2000/svg" xmlns:xlink="http://www.w3.org/1999/xlink" version="1.1" x="0" y="0" viewBox="6.890999794006348 1.1219940185546875 85.82400512695312 96.95000457763672" enable-background="new 0 0 100 100" xml:space="preserve" height="59.369168924422986" width="52.55595273409557" class="icon-icon-0" data-fill-palette-color="accent" id="icon-0"><g fill="#4b91f1" data-fill-palette-color="accent"><path fill="#000000" d="M64.008 72.381c4.002-3.149 12.23-11.582 15.089-21.179-6.511-8.01-33.912-42.187-40.238-50.08C38.212 8.613 31.63 24.377 20.21 29.646c-5.247 2.56-10.477 4.156-12.467 4.721l39.077 47.32C51.235 80.263 59.958 75.56 64.008 72.381z" data-fill-palette-color="accent"></path><g fill="#4b91f1" data-fill-palette-color="accent"><g fill="#4b91f1" data-fill-palette-color="accent"><path fill="#000000" d="M90.405 75.352c-6.5 3.781-13.381 7.281-20.674 9.929-8.632 3.134-19.05 6.681-22.386 7.664v5.127l43.046-15.479L90.405 75.352z" data-fill-palette-color="accent"></path><polygon fill="#000000" points="6.891,35.865 6.891,50.088 45.703,97.945 45.736,82.902    " data-fill-palette-color="accent"></polygon></g><path fill="#000000" d="M88.717 70.42c-5.018 3.936-11.386 7.921-18.278 11.363-6.521 3.266-20.879 7.668-23.093 8.339v1.144c3.686-1.09 13.036-3.898 21.237-7.013 9.104-3.457 22.12-11.628 22.12-11.628L88.717 70.42z" data-fill-palette-color="accent"></path></g><path fill="#000000" d="M80.877 50.835l-0.114 0.403c-2.851 10.142-11.25 18.858-15.762 22.409-4.225 3.319-13.009 8.054-17.655 9.561v2.168c6.53-2.034 15.656-6.36 20.721-9.922 8.699-6.128 17.195-14.63 22.419-22.404l0.047 0.036C84.648 46.442 51.938 9.001 49.818 6.309c-0.719 1.357-1.368 2.265-2.422 2.887 10.832 13.508 28.598 35.647 33.217 41.314L80.877 50.835z" data-fill-palette-color="accent"></path><path fill="#000000" d="M87.321 59.925c0 0-11.588 12.1-18.328 16.846-5.696 4.008-14.5 7.942-21.647 10.168v1.498c0.692-0.212 1.838-0.566 3.268-1.021 5.266-1.677 14.41-4.722 19.106-7.072 9.305-4.648 17.623-10.274 22.834-15.386 0.054-0.053 0.106-0.106 0.161-0.16L87.321 59.925z" data-fill-palette-color="accent"></path></g></svg></g></svg></g></svg></g></svg><rect width="395.52" height="51.24573601031903" fill="none" stroke="none" visibility="hidden"></rect></g></svg></g></svg>